<svg width="230" height="32" viewBox="0 0 230 32" fill="none" xmlns="http://www.w3.org/2000/svg">
<path d="M4.6 31.18H37.03C38.29 31.18 39.38 30.75 40.28 29.89C41.17 29.03 41.63 27.98 41.63 26.77V18.31C41.63 17.67 41.49 17.07 41.23 16.51C41.07 16.18 40.87 15.87 40.64 15.59C41.3 14.82 41.63 13.9 41.63 12.87V4.41C41.63 3.2 41.18 2.15 40.28 1.29C39.39 0.43 38.29 0 37.03 0H4.6C3.34 0 2.25 0.43 1.35 1.29C0.46 2.15 0 3.2 0 4.41V12.86C0 14.07 0.45 15.12 1.35 15.98C2.24 16.84 3.33 17.27 4.6 17.27H17.73C18.03 17.27 18.27 17.36 18.49 17.57C18.71 17.78 18.8 18 18.8 18.3V26.76C18.8 27.06 18.7 27.29 18.47 27.52C18.26 27.74 18.03 27.83 17.73 27.83H4.6C4.3 27.83 4.06 27.73 3.82 27.5C3.59 27.28 3.49 27.05 3.49 26.76V23.75C3.49 23.29 3.31 22.86 2.98 22.54C2.64 22.22 2.24 22.06 1.77 22.06C1.28 22.06 0.84 22.23 0.52 22.54C0.19 22.85 0.01 23.28 0.01 23.75V26.76C0.01 27.97 0.46 29.02 1.36 29.88C2.26 30.74 3.35 31.17 4.6 31.17V31.18ZM19.3 8.62C19.63 8.94 20.07 9.11 20.56 9.11C21.05 9.11 21.48 8.94 21.81 8.62C22.14 8.31 22.32 7.89 22.32 7.41V4.4C22.32 4.03 22.28 3.67 22.19 3.33H37.03C37.33 3.33 37.56 3.43 37.77 3.64C37.99 3.87 38.09 4.1 38.09 4.41V12.9C38.09 13.2 37.99 13.42 37.77 13.63C37.56 13.84 37.33 13.93 37.02 13.93H30C29.51 13.93 29.08 14.1 28.76 14.41C28.43 14.73 28.25 15.14 28.25 15.6C28.25 16.06 28.42 16.48 28.75 16.79C29.07 17.1 29.5 17.27 29.99 17.27H37.01C37.31 17.27 37.56 17.37 37.77 17.57C37.99 17.78 38.08 18 38.08 18.3V26.76C38.08 27.06 37.98 27.29 37.76 27.52C37.55 27.73 37.31 27.83 37.02 27.83H22.18C22.26 27.49 22.31 27.13 22.31 26.77V18.34C22.31 17.13 21.86 16.08 20.96 15.22C20.06 14.36 18.97 13.93 17.72 13.93H4.6C4.29 13.93 4.04 13.83 3.81 13.62C3.59 13.42 3.49 13.2 3.49 12.91V4.42C3.49 4.12 3.59 3.89 3.82 3.67C4.05 3.45 4.29 3.35 4.6 3.35H17.73C18.03 3.35 18.26 3.45 18.48 3.66C18.7 3.88 18.8 4.11 18.8 4.41V7.42C18.8 7.9 18.98 8.31 19.3 8.62Z" fill="#231815"/>
<path d="M49.55 23.1598C49.55 24.0198 49.77 24.8598 50.21 25.6498C50.65 26.4398 51.23 27.1798 51.95 27.8498C51.98 27.8898 51.98 27.9298 51.95 27.9798C51.92 28.0298 51.88 28.0698 51.81 28.1098C51.74 28.1398 51.66 28.1698 51.57 28.1898C51.48 28.2098 51.4 28.2198 51.31 28.2198C51.16 28.2198 51.05 28.1898 50.98 28.1298C50.15 27.4798 49.52 26.7298 49.09 25.8898C48.66 25.0398 48.45 24.1398 48.45 23.1898C48.45 22.7198 48.51 22.2598 48.63 21.7898C48.75 21.3198 48.92 20.8698 49.16 20.4198C49.38 19.9798 49.66 19.5698 49.98 19.1698C50.3 18.7698 50.68 18.4098 51.09 18.0898C51.17 18.0398 51.25 18.0098 51.34 18.0098C51.42 18.0098 51.5 18.0198 51.58 18.0598C51.66 18.0998 51.73 18.1298 51.78 18.1698C51.83 18.2098 51.87 18.2698 51.88 18.3298C51.89 18.3898 51.88 18.4398 51.83 18.4998C51.1 19.1698 50.54 19.9098 50.15 20.6998C49.76 21.4898 49.55 22.3198 49.55 23.1698V23.1598Z" fill="#231815" stroke="#231815" stroke-width="0.28" stroke-miterlimit="10"/>
<path d="M62.62 24.1198C62.74 24.1198 62.83 24.1498 62.91 24.2198C62.98 24.2798 63.02 24.4098 63.02 24.5998C63.02 24.7898 62.98 24.9198 62.91 24.9798C62.84 25.0398 62.74 25.0698 62.62 25.0698H58.89V27.9198C58.89 27.9998 58.78 28.0798 58.57 28.1398C58.36 28.1998 58.16 28.2398 57.98 28.2398C57.86 28.2398 57.78 28.2198 57.73 28.1698C57.68 28.1198 57.66 28.0598 57.66 27.9598V25.0698H53.87C53.75 25.0698 53.66 25.0398 53.58 24.9798C53.51 24.9198 53.47 24.7898 53.47 24.5998C53.47 24.4098 53.51 24.2798 53.58 24.2198C53.65 24.1498 53.75 24.1198 53.87 24.1198H62.61H62.62ZM58.92 19.3998C58.88 19.6098 58.82 19.8098 58.73 19.9998C59.19 20.2098 59.71 20.5198 60.29 20.9298C60.95 21.3898 61.46 21.8398 61.83 22.2798C61.9 22.3698 61.92 22.4698 61.9 22.5698C61.87 22.6698 61.8 22.7698 61.68 22.8698C61.6 22.9298 61.52 22.9698 61.44 22.9698C61.36 22.9698 61.3 22.9698 61.25 22.9198C60.96 22.6098 60.46 22.2298 59.76 21.7698C59.11 21.3398 58.57 21.0698 58.11 20.9398C57.97 21.0898 57.82 21.2298 57.66 21.3698C56.78 22.0998 55.9 22.5998 55.02 22.8898C54.91 22.9298 54.81 22.9298 54.71 22.9098C54.61 22.8798 54.52 22.8098 54.44 22.6698C54.38 22.5698 54.35 22.4698 54.36 22.3798C54.36 22.2898 54.41 22.2198 54.49 22.1798C55.49 21.7498 56.27 21.2198 56.85 20.5998C57.23 20.1898 57.49 19.7798 57.63 19.3798H55.17C55.06 19.3798 54.97 19.3498 54.9 19.2798C54.83 19.2098 54.8 19.0898 54.8 18.9198C54.8 18.7498 54.83 18.6198 54.88 18.5398C54.94 18.4598 55.02 18.4298 55.14 18.4298H61.41C61.52 18.4298 61.6 18.4698 61.65 18.5398C61.7 18.5998 61.73 18.7198 61.73 18.8798C61.73 19.2198 61.61 19.3898 61.38 19.3898H58.92V19.3998Z" fill="#231815" stroke="#231815" stroke-width="0.28" stroke-miterlimit="10"/>
<path d="M66.56 23.0698C66.56 22.2098 66.3399 21.3698 65.8999 20.5798C65.4599 19.7898 64.88 19.0498 64.16 18.3798C64.13 18.3398 64.13 18.2998 64.16 18.2498C64.19 18.1998 64.24 18.1598 64.31 18.1198C64.37 18.0898 64.4499 18.0598 64.5399 18.0398C64.6299 18.0198 64.71 18.0098 64.8 18.0098C64.95 18.0098 65.06 18.0398 65.13 18.0998C65.96 18.7498 66.59 19.4998 67.02 20.3398C67.45 21.1898 67.66 22.0898 67.66 23.0398C67.66 23.5098 67.6 23.9698 67.48 24.4398C67.36 24.9098 67.1899 25.3598 66.9699 25.7898C66.7399 26.2298 66.46 26.6498 66.13 27.0498C65.8 27.4498 65.43 27.8098 65.02 28.1298C64.93 28.1798 64.85 28.2098 64.77 28.2098C64.69 28.2098 64.6099 28.1998 64.5299 28.1598C64.4499 28.1198 64.3799 28.0898 64.3299 28.0498C64.2699 27.9998 64.24 27.9498 64.23 27.8898C64.22 27.8298 64.2299 27.7798 64.2799 27.7198C64.9999 27.0498 65.5699 26.3098 65.9599 25.5198C66.3499 24.7298 66.56 23.8998 66.56 23.0498V23.0698Z" fill="#231815" stroke="#231815" stroke-width="0.28" stroke-miterlimit="10"/>
<path d="M69.4401 26.9798C69.3301 26.9798 69.2401 26.9498 69.1701 26.8798C69.1001 26.8098 69.0701 26.6898 69.0701 26.5198C69.0701 26.3398 69.1001 26.2098 69.1501 26.1398C69.2001 26.0698 69.2901 26.0298 69.4201 26.0298H78.2501C78.3601 26.0298 78.4401 26.0598 78.4901 26.1298C78.5401 26.1998 78.5701 26.3098 78.5701 26.4698C78.5701 26.8098 78.4601 26.9798 78.2401 26.9798H69.4501H69.4401ZM70.2801 23.1498C71.2601 22.6698 72.0001 22.0898 72.5101 21.4198C73.0201 20.7498 73.2701 20.0698 73.2701 19.3698V18.8898C73.2701 18.8198 73.3001 18.7598 73.3501 18.7098C73.4001 18.6598 73.4801 18.6398 73.5901 18.6398C73.7901 18.6398 73.9901 18.6798 74.2101 18.7698C74.4301 18.8598 74.5301 18.9498 74.5301 19.0398V19.2598C74.5301 19.8998 74.4101 20.4898 74.1701 21.0198C74.5801 21.1898 75.1301 21.5098 75.8101 21.9698C76.5201 22.4598 77.0401 22.9198 77.3701 23.3598C77.4301 23.4498 77.4601 23.5498 77.4401 23.6498C77.4201 23.7498 77.3501 23.8598 77.2301 23.9498C77.1501 24.0098 77.0701 24.0498 76.9901 24.0498C76.9101 24.0498 76.8401 24.0498 76.8001 23.9998C76.2701 23.4598 75.6901 23.0098 75.0401 22.6598C74.4801 22.3498 73.9701 22.1398 73.5001 22.0098C73.4801 22.0298 73.4601 22.0598 73.4401 22.0798C72.7201 22.8498 71.7601 23.4798 70.5601 23.9998C70.3301 24.0998 70.1301 24.0298 69.9701 23.7798C69.9101 23.6798 69.8801 23.5798 69.8901 23.4898C69.8901 23.3998 69.9401 23.3298 70.0201 23.2998L70.2801 23.1498Z" fill="#231815" stroke="#231815" stroke-width="0.28" stroke-miterlimit="10"/>
<path d="M85.8101 23.4698C85.9101 23.4498 86.0001 23.4598 86.0801 23.4998C86.1601 23.5498 86.2101 23.6398 86.2401 23.7798C86.2801 23.9498 86.2801 24.0698 86.2401 24.1498C86.2001 24.2298 86.1201 24.2898 86.0001 24.3398C85.6601 24.4798 85.1501 24.5798 84.4701 24.6598C83.9101 24.7298 83.4301 24.7698 83.0401 24.7698V27.7998C83.0401 27.8798 82.9301 27.9598 82.7201 28.0198C82.5101 28.0898 82.3101 28.1198 82.1301 28.1198C82.0101 28.1198 81.9301 28.0998 81.8801 28.0498C81.8301 27.9998 81.8101 27.9398 81.8101 27.8398V24.7598H79.6801C79.5401 24.7598 79.4501 24.7298 79.3901 24.6598C79.3301 24.5898 79.3101 24.4698 79.3101 24.2898C79.3101 24.1098 79.3401 23.9898 79.3901 23.9198C79.4501 23.8498 79.5301 23.8098 79.6501 23.8098H82.7901C83.3101 23.8098 83.8301 23.7798 84.3401 23.7098C84.8601 23.6498 85.3401 23.5598 85.8001 23.4498L85.8101 23.4698ZM79.8301 20.6198C79.8301 20.2998 79.9001 19.9998 80.0301 19.7098C80.1601 19.4198 80.3501 19.1698 80.6001 18.9598C80.8401 18.7498 81.1301 18.5898 81.4701 18.4698C81.8101 18.3498 82.1801 18.2898 82.6001 18.2898C83.0201 18.2898 83.3901 18.3498 83.7301 18.4698C84.0701 18.5898 84.3601 18.7598 84.6101 18.9598C84.8501 19.1698 85.0401 19.4198 85.1701 19.7098C85.3101 19.9998 85.3701 20.2998 85.3701 20.6198C85.3701 20.9398 85.3001 21.2498 85.1701 21.5298C85.0301 21.8198 84.8501 22.0598 84.6101 22.2698C84.3601 22.4798 84.0701 22.6498 83.7301 22.7798C83.3901 22.8998 83.0201 22.9598 82.6001 22.9598C82.1801 22.9598 81.8101 22.8998 81.4701 22.7798C81.1301 22.6598 80.8401 22.4898 80.6001 22.2698C80.3501 22.0598 80.1601 21.8198 80.0301 21.5298C79.9001 21.2398 79.8301 20.9398 79.8301 20.6198ZM81.0501 20.6198C81.0501 20.8098 81.0901 20.9898 81.1601 21.1598C81.2301 21.3298 81.3301 21.4698 81.4701 21.5998C81.6001 21.7298 81.7601 21.8298 81.9501 21.8998C82.1401 21.9698 82.3601 22.0098 82.5901 22.0098C82.8201 22.0098 83.0401 21.9698 83.2301 21.8998C83.4201 21.8298 83.5801 21.7298 83.7201 21.5998C83.8501 21.4798 83.9501 21.3298 84.0201 21.1598C84.0901 20.9898 84.1301 20.8098 84.1301 20.6198C84.1301 20.4298 84.0901 20.2498 84.0201 20.0798C83.9501 19.9098 83.8501 19.7598 83.7201 19.6298C83.5801 19.5098 83.4201 19.4098 83.2301 19.3398C83.0401 19.2698 82.8201 19.2298 82.5901 19.2298C82.3601 19.2298 82.1401 19.2698 81.9501 19.3398C81.7601 19.4098 81.6001 19.5098 81.4701 19.6298C81.3301 19.7598 81.2301 19.9098 81.1601 20.0798C81.0901 20.2498 81.0501 20.4298 81.0501 20.6198ZM88.0901 27.9098C88.0901 27.9998 87.9901 28.0798 87.8001 28.1398C87.6101 28.1998 87.4001 28.2298 87.1801 28.2298C87.0601 28.2298 86.9801 28.2098 86.9301 28.1598C86.8801 28.1098 86.8601 28.0398 86.8601 27.9598V18.2998C86.8601 18.2098 86.8801 18.1398 86.9301 18.0898C86.9801 18.0398 87.0601 18.0198 87.1801 18.0198C87.3601 18.0198 87.5601 18.0498 87.7701 18.1098C87.9801 18.1698 88.0901 18.2498 88.0901 18.3598V27.9298V27.9098Z" fill="#231815" stroke="#231815" stroke-width="0.28" stroke-miterlimit="10"/>
<path d="M90.4598 26.9798C90.3498 26.9798 90.2598 26.9498 90.1898 26.8798C90.1198 26.8098 90.0898 26.6898 90.0898 26.5198C90.0898 26.3398 90.1198 26.2098 90.1698 26.1398C90.2198 26.0698 90.3098 26.0298 90.4398 26.0298H99.2698C99.3798 26.0298 99.4598 26.0598 99.5098 26.1298C99.5598 26.1998 99.5898 26.3098 99.5898 26.4698C99.5898 26.8098 99.4798 26.9798 99.2598 26.9798H90.4698H90.4598ZM91.9098 24.3498C91.7298 24.3498 91.5698 24.3098 91.4398 24.2198C91.3098 24.1398 91.2498 23.9998 91.2498 23.8198V19.5198C91.2498 19.3698 91.3198 19.2298 91.4598 19.0998C91.5998 18.9698 91.8198 18.9098 92.1098 18.9098H97.9098C98.0398 18.9098 98.1298 18.9398 98.1998 19.0098C98.2698 19.0798 98.2998 19.1998 98.2998 19.3698C98.2998 19.5398 98.2598 19.6798 98.1898 19.7498C98.1198 19.8198 98.0098 19.8598 97.8898 19.8598H92.4698V21.0798H97.6098C97.8498 21.0798 97.9698 21.2398 97.9698 21.5498C97.9698 21.7298 97.9398 21.8498 97.8898 21.9198C97.8398 21.9898 97.7498 22.0298 97.6298 22.0298H92.4698V23.3998H98.0798C98.3498 23.3998 98.4898 23.5498 98.4898 23.8598C98.4898 24.1898 98.3498 24.3498 98.0798 24.3498H91.9098Z" fill="#231815" stroke="#231815" stroke-width="0.28" stroke-miterlimit="10"/>
<path d="M109.23 23.2598C109.23 23.3498 109.13 23.4298 108.94 23.4898C108.75 23.5498 108.54 23.5798 108.32 23.5798C108.2 23.5798 108.12 23.5498 108.07 23.5098C108.02 23.4598 108 23.3898 108 23.3098V21.3198H106.11V22.6098C106.11 22.7398 106.06 22.8498 105.96 22.9398C105.86 23.0298 105.75 23.0798 105.62 23.0798H101.36C101.23 23.0798 101.12 23.0298 101.02 22.9398C100.92 22.8498 100.87 22.7398 100.87 22.6098V18.7198C100.87 18.6298 100.89 18.5598 100.94 18.5098C100.99 18.4598 101.07 18.4398 101.19 18.4398C101.37 18.4398 101.57 18.4698 101.78 18.5398C101.99 18.6098 102.1 18.6798 102.1 18.7598V19.9798H104.89V18.6398C104.89 18.5498 104.91 18.4798 104.96 18.4298C105.01 18.3798 105.09 18.3598 105.21 18.3598C105.38 18.3598 105.58 18.3898 105.79 18.4598C106 18.5298 106.11 18.5998 106.11 18.6798V20.3698H108V18.0598C108 17.9698 108.02 17.8998 108.07 17.8498C108.12 17.7998 108.2 17.7798 108.32 17.7798C108.5 17.7798 108.7 17.8098 108.91 17.8698C109.12 17.9298 109.23 18.0098 109.23 18.1198V23.2698V23.2598ZM104.9 20.9098H102.09V22.1398H104.9V20.9098ZM105.82 23.8698C106.8 23.8698 107.6 24.0798 108.23 24.4898C108.86 24.8998 109.17 25.4398 109.17 26.0998C109.17 26.7598 108.86 27.2898 108.23 27.6998C107.6 28.1098 106.8 28.3098 105.81 28.3098C104.82 28.3098 104.03 28.1098 103.4 27.6998C102.77 27.2898 102.44 26.7598 102.44 26.0998C102.44 25.4398 102.75 24.9098 103.38 24.4898C104.01 24.0798 104.82 23.8698 105.8 23.8698H105.82ZM105.82 27.3798C106.45 27.3798 106.97 27.2598 107.39 27.0298C107.81 26.7998 108.02 26.4898 108.02 26.0898C108.02 25.6898 107.81 25.3798 107.39 25.1398C106.97 24.9098 106.45 24.7898 105.83 24.7898C105.21 24.7898 104.69 24.9098 104.26 25.1398C103.83 25.3698 103.62 25.6898 103.62 26.0898C103.62 26.4898 103.83 26.7898 104.25 27.0298C104.67 27.2598 105.2 27.3798 105.83 27.3798H105.82Z" fill="#231815" stroke="#231815" stroke-width="0.28" stroke-miterlimit="10"/>
<path d="M114.93 19.1398C115.49 19.1398 115.9 19.2498 116.15 19.4598C116.41 19.6698 116.54 19.9698 116.54 20.3598C116.54 21.3498 116.06 22.3398 115.11 23.3198C114.15 24.2998 113.1 25.0398 111.94 25.5398C111.81 25.5898 111.71 25.5898 111.64 25.5198C111.56 25.4598 111.49 25.3598 111.43 25.2298C111.35 25.0798 111.32 24.9598 111.35 24.8698C111.37 24.7898 111.44 24.7198 111.55 24.6598C112.69 24.0898 113.6 23.4298 114.27 22.6898C114.29 22.6698 114.31 22.6398 114.33 22.6198H111.91C111.81 22.6198 111.72 22.5698 111.67 22.4998C111.61 22.4298 111.58 22.3098 111.58 22.1498C111.58 21.9998 111.6 21.8898 111.65 21.7998C111.7 21.7098 111.78 21.6698 111.9 21.6698H115.02C115.2 21.3298 115.3 20.9998 115.3 20.7098C115.3 20.4998 115.25 20.3398 115.16 20.2498C115.06 20.1498 114.88 20.1098 114.6 20.1098H111.81C111.71 20.1098 111.62 20.0598 111.57 19.9898C111.52 19.9198 111.48 19.7998 111.48 19.6398C111.48 19.4998 111.5 19.3798 111.55 19.2898C111.6 19.1998 111.68 19.1598 111.8 19.1598H114.95L114.93 19.1398ZM119.74 27.9098C119.74 27.9998 119.64 28.0798 119.45 28.1398C119.26 28.1998 119.05 28.2298 118.83 28.2298C118.71 28.2298 118.63 28.2098 118.58 28.1598C118.53 28.1098 118.51 28.0398 118.51 27.9598V22.4698H117.02C116.91 22.4698 116.82 22.4398 116.75 22.3698C116.68 22.2998 116.65 22.1798 116.65 22.0098C116.65 21.8298 116.68 21.6998 116.73 21.6298C116.78 21.5598 116.87 21.5198 116.99 21.5198H118.51V18.2898C118.51 18.1998 118.53 18.1298 118.58 18.0798C118.63 18.0298 118.71 18.0098 118.83 18.0098C119.01 18.0098 119.21 18.0398 119.42 18.0998C119.63 18.1598 119.74 18.2398 119.74 18.3498V27.9198V27.9098Z" fill="#231815" stroke="#231815" stroke-width="0.28" stroke-miterlimit="10"/>
<path d="M122.59 25.6698C122.41 25.6698 122.25 25.6298 122.13 25.5398C122.01 25.4498 121.94 25.3198 121.94 25.1398V19.7498C121.94 19.5998 122.01 19.4598 122.14 19.3298C122.28 19.1998 122.49 19.1398 122.78 19.1398H126.73C126.86 19.1398 126.95 19.1898 127 19.2698C127.05 19.3498 127.08 19.4698 127.08 19.6198C127.08 19.7698 127.05 19.8898 126.98 19.9698C126.92 20.0498 126.83 20.0898 126.73 20.0898H123.15V24.7198H127.11C127.23 24.7198 127.32 24.7598 127.37 24.8498C127.42 24.9398 127.45 25.0598 127.45 25.2098C127.45 25.3598 127.42 25.4798 127.35 25.5498C127.29 25.6298 127.21 25.6598 127.11 25.6598H122.57L122.59 25.6698ZM130.25 27.9098C130.25 27.9998 130.15 28.0798 129.96 28.1398C129.77 28.1998 129.56 28.2298 129.34 28.2298C129.22 28.2298 129.14 28.2098 129.09 28.1598C129.04 28.1098 129.02 28.0398 129.02 27.9598V18.2998C129.02 18.2098 129.04 18.1398 129.09 18.0898C129.14 18.0398 129.22 18.0198 129.34 18.0198C129.52 18.0198 129.72 18.0498 129.93 18.1098C130.14 18.1698 130.25 18.2498 130.25 18.3598V27.9298V27.9098Z" fill="#231815" stroke="#231815" stroke-width="0.28" stroke-miterlimit="10"/>
<path d="M135.89 20.0898C135.85 20.8198 135.73 21.4798 135.52 22.0798C136.01 22.3598 136.48 22.7398 136.93 23.1998C137.47 23.7498 137.87 24.2898 138.12 24.8298C138.17 24.9198 138.18 25.0198 138.15 25.1298C138.12 25.2398 138.04 25.3298 137.91 25.4198C137.78 25.4998 137.67 25.5098 137.57 25.4598C137.47 25.4098 137.39 25.3298 137.33 25.2098C137.12 24.8398 136.77 24.4298 136.3 23.9698C135.93 23.6198 135.52 23.3298 135.05 23.1098C134.48 24.0698 133.66 24.8998 132.57 25.5998C132.46 25.6498 132.35 25.6598 132.25 25.6198C132.15 25.5798 132.06 25.4998 131.97 25.3698C131.91 25.2698 131.88 25.1798 131.89 25.0898C131.89 24.9998 131.94 24.9298 132.01 24.8898C132.97 24.1998 133.66 23.4398 134.06 22.5898C134.39 21.8898 134.59 21.0598 134.65 20.0898H132.79C132.68 20.0898 132.59 20.0598 132.52 19.9898C132.45 19.9198 132.42 19.7998 132.42 19.6298C132.42 19.4498 132.45 19.3298 132.5 19.2498C132.55 19.1698 132.64 19.1398 132.76 19.1398H137.8C138.05 19.1398 138.17 19.2898 138.17 19.5998C138.17 19.7798 138.14 19.9098 138.09 19.9798C138.04 20.0498 137.95 20.0898 137.82 20.0898H135.9H135.89ZM140.4 27.9098C140.4 27.9998 140.3 28.0798 140.11 28.1398C139.92 28.1998 139.71 28.2298 139.49 28.2298C139.37 28.2298 139.29 28.2098 139.24 28.1598C139.19 28.1098 139.17 28.0398 139.17 27.9598V18.2998C139.17 18.2098 139.19 18.1398 139.24 18.0898C139.29 18.0398 139.37 18.0198 139.49 18.0198C139.67 18.0198 139.87 18.0498 140.08 18.1098C140.29 18.1698 140.4 18.2498 140.4 18.3598V21.9298H141.63C141.88 21.9298 142 22.0698 142 22.3498C142 22.5298 141.98 22.6598 141.93 22.7498C141.89 22.8398 141.8 22.8798 141.69 22.8798H140.4V27.9298V27.9098Z" fill="#231815" stroke="#231815" stroke-width="0.28" stroke-miterlimit="10"/>
<path d="M142.7 21.0098C142.7 20.6298 142.77 20.2798 142.9 19.9598C143.03 19.6398 143.22 19.3698 143.47 19.1398C143.71 18.9198 144 18.7398 144.34 18.6198C144.68 18.4898 145.05 18.4298 145.47 18.4298C145.89 18.4298 146.26 18.4898 146.6 18.6198C146.94 18.7498 147.23 18.9198 147.48 19.1398C147.72 19.3698 147.91 19.6398 148.04 19.9598C148.18 20.2798 148.24 20.6298 148.24 21.0098C148.24 21.3898 148.17 21.7398 148.04 22.0598C147.9 22.3798 147.72 22.6498 147.48 22.8698C147.23 23.0998 146.94 23.2798 146.6 23.3998C146.26 23.5198 145.89 23.5898 145.47 23.5898C145.05 23.5898 144.68 23.5298 144.34 23.3998C144 23.2698 143.71 23.0998 143.47 22.8698C143.22 22.6498 143.03 22.3798 142.9 22.0598C142.77 21.7398 142.7 21.3898 142.7 21.0098ZM143.87 21.0098C143.87 21.2298 143.91 21.4398 144 21.6398C144.09 21.8398 144.2 22.0098 144.34 22.1598C144.48 22.3098 144.65 22.4198 144.85 22.4998C145.05 22.5798 145.25 22.6298 145.48 22.6298C145.71 22.6298 145.91 22.5898 146.11 22.4998C146.3 22.4198 146.47 22.2998 146.62 22.1598C146.77 22.0198 146.88 21.8398 146.96 21.6398C147.04 21.4398 147.09 21.2298 147.09 21.0098C147.09 20.7898 147.05 20.5798 146.96 20.3798C146.87 20.1798 146.76 20.0098 146.62 19.8598C146.48 19.7198 146.31 19.5998 146.11 19.5198C145.91 19.4398 145.71 19.3898 145.48 19.3898C145.25 19.3898 145.05 19.4298 144.85 19.5198C144.65 19.6098 144.49 19.7198 144.34 19.8598C144.2 20.0098 144.08 20.1798 144 20.3798C143.92 20.5798 143.87 20.7898 143.87 21.0098ZM145.69 27.0598H150.99C151.11 27.0598 151.2 27.0898 151.28 27.1598C151.35 27.2298 151.39 27.3498 151.39 27.5398C151.39 27.7298 151.35 27.8598 151.28 27.9198C151.21 27.9798 151.11 28.0098 150.99 28.0098H144.96C144.83 28.0098 144.72 27.9598 144.62 27.8698C144.52 27.7798 144.47 27.6698 144.47 27.5398V24.7298C144.47 24.6398 144.49 24.5798 144.54 24.5298C144.59 24.4798 144.67 24.4598 144.79 24.4598C145.01 24.4598 145.22 24.4898 145.41 24.5598C145.6 24.6298 145.69 24.7098 145.69 24.7898V27.0598ZM151.27 24.9798C151.27 25.0698 151.17 25.1498 150.98 25.2098C150.79 25.2698 150.58 25.2998 150.36 25.2998C150.24 25.2998 150.16 25.2698 150.11 25.2298C150.06 25.1798 150.04 25.1098 150.04 25.0298V18.0598C150.04 17.9698 150.06 17.8998 150.11 17.8498C150.16 17.7998 150.24 17.7798 150.36 17.7798C150.54 17.7798 150.74 17.8098 150.95 17.8698C151.16 17.9298 151.27 18.0098 151.27 18.1198V24.9998V24.9798Z" fill="#231815" stroke="#231815" stroke-width="0.28" stroke-miterlimit="10"/>
<path d="M51.2001 2.95984C51.6201 2.95984 52.0201 3.00984 52.4001 3.10984C52.7801 3.20984 53.1101 3.36984 53.4001 3.57984C53.6801 3.78984 53.9001 4.04984 54.0701 4.35984C54.2401 4.66984 54.3201 5.02984 54.3201 5.43984C54.3201 5.49984 54.2801 5.54984 54.1901 5.59984C54.1001 5.64984 54.0101 5.66984 53.9001 5.69984C53.7901 5.72984 53.6701 5.74984 53.5501 5.75984C53.4301 5.76984 53.3401 5.76984 53.2601 5.75984C53.1801 5.74984 53.1301 5.70984 53.1101 5.64984C53.0901 5.58984 53.0801 5.49984 53.0801 5.39984V5.28984C53.0601 5.05984 52.9901 4.85984 52.8801 4.68984C52.7701 4.51984 52.6301 4.37984 52.4701 4.27984C52.3001 4.17984 52.1201 4.10984 51.9101 4.05984C51.7001 4.00984 51.5101 3.98984 51.3101 3.98984C51.1101 3.98984 50.9201 4.00984 50.7201 4.04984C50.5201 4.08984 50.3301 4.14984 50.1501 4.23984C49.9701 4.32984 49.8301 4.44984 49.7201 4.58984C49.6101 4.72984 49.5501 4.90984 49.5501 5.10984C49.5501 5.26984 49.5801 5.40984 49.6501 5.53984C49.7201 5.66984 49.8101 5.77984 49.9301 5.87984C50.0401 5.98984 50.1701 6.07984 50.3101 6.15984C50.4501 6.23984 50.6001 6.30984 50.7401 6.37984C51.0901 6.52984 51.4301 6.67984 51.7701 6.81984C52.1101 6.95984 52.4901 7.10984 52.9101 7.27984C52.9501 7.29984 53.0001 7.30984 53.0501 7.33984C53.1001 7.35984 53.1501 7.37984 53.1901 7.39984C53.6001 7.55984 53.9301 7.77984 54.1801 8.06984C54.4301 8.35984 54.5501 8.72984 54.5501 9.18984C54.5501 9.64984 54.4601 9.99984 54.2801 10.2998C54.1001 10.5998 53.8601 10.8498 53.5601 11.0398C53.2601 11.2298 52.9101 11.3698 52.5301 11.4498C52.1401 11.5298 51.7501 11.5798 51.3501 11.5798C50.5301 11.5798 49.8501 11.4198 49.3101 11.0898C48.7701 10.7598 48.4001 10.3098 48.2101 9.71984C48.1101 9.41984 48.0701 9.11984 48.0701 8.80984C48.0701 8.75984 48.1101 8.70984 48.1901 8.65984C48.2701 8.60984 48.3701 8.57984 48.4801 8.54984C48.5901 8.51984 48.7101 8.49984 48.8301 8.48984C48.9501 8.47984 49.0401 8.47984 49.1201 8.48984C49.2001 8.50984 49.2501 8.55984 49.2801 8.65984C49.3001 8.75984 49.3201 8.85984 49.3201 8.95984C49.3501 9.28984 49.4301 9.55984 49.5501 9.76984C49.6701 9.97984 49.8201 10.1498 50.0201 10.2698C50.2001 10.3898 50.4201 10.4798 50.6601 10.5298C50.9001 10.5798 51.1601 10.5998 51.4301 10.5998C51.5801 10.5998 51.7701 10.5798 52.0001 10.5398C52.2301 10.4998 52.4501 10.4298 52.6701 10.3398C52.8901 10.2498 53.0701 10.1298 53.2201 9.96984C53.3701 9.81984 53.4501 9.62984 53.4501 9.39984C53.4501 9.24984 53.4201 9.12984 53.3601 9.01984C53.3001 8.90984 53.2201 8.81984 53.1301 8.72984C53.0301 8.64984 52.9301 8.57984 52.8101 8.51984C52.6901 8.44984 52.5701 8.38984 52.4501 8.32984C51.9701 8.08984 51.5301 7.88984 51.1401 7.71984C50.7401 7.54984 50.3501 7.38984 49.9701 7.23984C49.9101 7.20984 49.8301 7.17984 49.7501 7.14984C49.6701 7.11984 49.5901 7.08984 49.5301 7.05984C49.1601 6.89984 48.8601 6.66984 48.6501 6.36984C48.4401 6.06984 48.3301 5.70984 48.3301 5.29984C48.3301 4.90984 48.4101 4.56984 48.5701 4.27984C48.7301 3.98984 48.9401 3.74984 49.2101 3.55984C49.4701 3.37984 49.7801 3.23984 50.1301 3.14984C50.4801 3.05984 50.8401 3.00984 51.2201 3.00984L51.2001 2.95984Z" fill="#231815" stroke="#231815" stroke-width="0.28" stroke-miterlimit="10"/>
<path d="M59.1402 10.7099C59.1202 10.7999 59.0702 10.8999 59.0102 10.9899C58.9502 11.0899 58.8802 11.1699 58.8002 11.2499C58.7202 11.3199 58.6302 11.3699 58.5402 11.4199C58.4502 11.4699 58.3602 11.4799 58.2702 11.4799C58.0402 11.4799 57.8502 11.3899 57.7102 11.2299C57.5702 11.0699 57.4802 10.8999 57.4402 10.7399C57.1602 9.54986 56.8802 8.33986 56.6002 7.11986C56.3202 5.89986 56.0402 4.69986 55.7602 3.49986C55.7102 3.29986 55.7302 3.16986 55.8102 3.08986C55.8902 3.01986 56.0202 2.97986 56.2002 2.97986C56.3502 2.97986 56.5002 2.99986 56.6602 3.03986C56.8202 3.07986 56.9002 3.13986 56.9202 3.20986C57.1502 4.23986 57.3802 5.25986 57.6002 6.29986C57.8202 7.32986 58.0502 8.35986 58.2802 9.38986C58.3202 9.47986 58.3502 9.52986 58.3802 9.52986C58.4102 9.52986 58.4502 9.47986 58.4902 9.37986C58.7302 8.45986 58.9702 7.51986 59.2102 6.58986C59.4502 5.65986 59.6902 4.71986 59.9302 3.78986C59.9502 3.69986 60.0102 3.60986 60.1002 3.53986C60.1902 3.46986 60.3202 3.42986 60.4802 3.42986C60.6402 3.42986 60.7602 3.46986 60.8402 3.53986C60.9202 3.60986 60.9802 3.69986 61.0002 3.79986L62.4302 9.39986C62.4802 9.49986 62.5202 9.54986 62.5402 9.53986C62.5702 9.53986 62.6002 9.47986 62.6402 9.38986C62.8702 8.36986 63.1002 7.33986 63.3202 6.30986C63.5402 5.28986 63.7702 4.25986 64.0002 3.21986C64.0202 3.14986 64.1002 3.09986 64.2602 3.04986C64.4202 3.00986 64.5702 2.98986 64.7202 2.98986C64.9002 2.98986 65.0302 3.02986 65.1102 3.09986C65.1902 3.16986 65.2102 3.30986 65.1602 3.50986L63.4802 10.7399C63.4402 10.9099 63.3502 11.0699 63.2102 11.2299C63.0702 11.3899 62.8902 11.4699 62.6502 11.4799C62.5602 11.4799 62.4702 11.4599 62.3802 11.4199C62.2902 11.3799 62.2002 11.3199 62.1202 11.2499C62.0402 11.1699 61.9702 11.0899 61.9102 10.9899C61.8502 10.8899 61.8102 10.7999 61.7802 10.7099C61.5602 9.86986 61.3302 9.01986 61.1102 8.15986C60.8902 7.29986 60.6602 6.44986 60.4402 5.60986L59.1002 10.7199L59.1402 10.7099Z" fill="#231815" stroke="#231815" stroke-width="0.28" stroke-miterlimit="10"/>
<path d="M66.6301 3.63994C66.6301 3.47994 66.6901 3.33994 66.8001 3.22994C66.9101 3.11994 67.0701 3.05994 67.2801 3.05994H72.0201C72.2501 3.05994 72.3701 3.21994 72.3701 3.52994C72.3701 3.87994 72.2501 4.05994 72.0101 4.05994H67.9001V6.64994H71.6601C71.8901 6.64994 72.0101 6.80994 72.0101 7.11994C72.0101 7.46994 71.8901 7.64994 71.6501 7.64994H67.9001V10.3799H72.1301C72.3701 10.3799 72.4901 10.5599 72.4901 10.9099C72.4901 11.2199 72.3701 11.3799 72.1401 11.3799H67.2801C67.0701 11.3799 66.9101 11.3199 66.8001 11.2099C66.6901 11.0999 66.6301 10.9599 66.6301 10.7999V3.63994Z" fill="#231815" stroke="#231815" stroke-width="0.28" stroke-miterlimit="10"/>
<path d="M73.6902 3.63994C73.6902 3.47994 73.7502 3.33994 73.8602 3.22994C73.9702 3.11994 74.1302 3.05994 74.3402 3.05994H79.0802C79.3102 3.05994 79.4302 3.21994 79.4302 3.52994C79.4302 3.87994 79.3102 4.05994 79.0702 4.05994H74.9602V6.64994H78.7202C78.9502 6.64994 79.0702 6.80994 79.0702 7.11994C79.0702 7.46994 78.9502 7.64994 78.7102 7.64994H74.9602V10.3799H79.1902C79.4302 10.3799 79.5502 10.5599 79.5502 10.9099C79.5502 11.2199 79.4302 11.3799 79.2002 11.3799H74.3402C74.1302 11.3799 73.9702 11.3199 73.8602 11.2099C73.7502 11.0999 73.6902 10.9599 73.6902 10.7999V3.63994Z" fill="#231815" stroke="#231815" stroke-width="0.28" stroke-miterlimit="10"/>
<path d="M84.51 11.1999C84.51 11.2699 84.48 11.3299 84.41 11.3799C84.34 11.4299 84.26 11.4799 84.17 11.5199C84.07 11.5599 83.96 11.5899 83.86 11.6099C83.76 11.6299 83.67 11.6399 83.6 11.6399C83.38 11.6399 83.27 11.5099 83.27 11.2599V4.02992H80.64C80.52 4.02992 80.43 3.98992 80.35 3.91992C80.28 3.84992 80.24 3.71992 80.24 3.54992C80.24 3.35992 80.27 3.21992 80.32 3.14992C80.38 3.06992 80.47 3.03992 80.61 3.03992H87.19C87.42 3.03992 87.54 3.19992 87.54 3.50992C87.54 3.85992 87.42 4.03992 87.18 4.03992H84.52V11.2099L84.51 11.1999Z" fill="#231815" stroke="#231815" stroke-width="0.28" stroke-miterlimit="10"/>
<path d="M91.6501 3.63994C91.6501 3.47994 91.7101 3.33994 91.8201 3.22994C91.9301 3.11994 92.0901 3.05994 92.3001 3.05994H95.2501C95.6201 3.05994 95.9601 3.11994 96.2501 3.23994C96.5401 3.35994 96.7901 3.51994 96.9801 3.71994C97.1701 3.91994 97.3202 4.14994 97.4202 4.41994C97.5202 4.68994 97.5801 4.96994 97.5801 5.26994C97.5801 5.65994 97.4801 6.01994 97.2901 6.33994C97.1001 6.65994 96.7701 6.88994 96.3301 7.01994C96.5301 7.05994 96.7201 7.13994 96.9101 7.25994C97.1001 7.37994 97.2601 7.52994 97.4101 7.69994C97.5501 7.87994 97.6502 8.08994 97.7402 8.31994C97.8202 8.54994 97.8701 8.78994 97.8701 9.04994C97.8701 9.42994 97.8101 9.75994 97.6801 10.0499C97.5501 10.3399 97.3701 10.5799 97.1401 10.7699C96.9101 10.9699 96.6301 11.1199 96.3001 11.2199C95.9701 11.3199 95.6101 11.3799 95.2101 11.3799H92.3102C92.1002 11.3799 91.9401 11.3199 91.8301 11.2099C91.7201 11.0999 91.6601 10.9599 91.6601 10.7999V3.63994H91.6501ZM92.9202 4.04994V6.54994H95.0901C95.5301 6.54994 95.8501 6.41994 96.0501 6.16994C96.2501 5.91994 96.3501 5.59994 96.3501 5.21994C96.3501 4.85994 96.2501 4.57994 96.0501 4.36994C95.8501 4.15994 95.5601 4.04994 95.2001 4.04994H92.9202ZM94.9301 10.3799C95.4301 10.3799 95.8301 10.2599 96.1201 10.0199C96.4101 9.77994 96.5602 9.41994 96.5602 8.94994C96.5602 8.43994 96.4101 8.07994 96.1201 7.86994C95.8301 7.65994 95.4301 7.55994 94.9401 7.55994H92.9202V10.3799H94.9401H94.9301Z" fill="#231815" stroke="#231815" stroke-width="0.28" stroke-miterlimit="10"/>
<path d="M100.48 7.82991C100.48 8.20991 100.49 8.56991 100.52 8.89991C100.55 9.22991 100.63 9.51991 100.75 9.76991C100.88 10.0199 101.08 10.2099 101.35 10.3599C101.62 10.5099 102 10.5799 102.48 10.5799C102.96 10.5799 103.33 10.5099 103.6 10.3599C103.87 10.2199 104.07 10.0199 104.2 9.76991C104.33 9.52991 104.41 9.23991 104.44 8.92991C104.47 8.61991 104.49 8.28991 104.49 7.94991V3.28991C104.49 3.03991 104.6 2.90991 104.82 2.90991C104.89 2.90991 104.98 2.91991 105.08 2.93991C105.18 2.95991 105.29 2.98991 105.39 3.02991C105.49 3.06991 105.57 3.11991 105.63 3.16991C105.69 3.21991 105.73 3.27991 105.73 3.34991V7.87991C105.73 8.19991 105.72 8.51991 105.69 8.81991C105.66 9.12991 105.61 9.41991 105.54 9.68991C105.46 9.96991 105.35 10.2199 105.2 10.4499C105.05 10.6799 104.86 10.8799 104.62 11.0499C104.38 11.2199 104.08 11.3499 103.73 11.4499C103.38 11.5499 102.95 11.5899 102.46 11.5899C101.74 11.5899 101.17 11.4899 100.74 11.2799C100.31 11.0699 99.9799 10.7899 99.7599 10.4399C99.5299 10.0899 99.38 9.67991 99.31 9.22991C99.24 8.77991 99.2 8.30991 99.2 7.81991V3.28991C99.2 3.03991 99.3099 2.90991 99.5299 2.90991C99.5999 2.90991 99.6899 2.91991 99.7899 2.93991C99.8899 2.95991 99.9999 2.98991 100.1 3.02991C100.2 3.06991 100.28 3.11991 100.34 3.16991C100.4 3.21991 100.44 3.27991 100.44 3.34991V7.82991H100.48Z" fill="#231815" stroke="#231815" stroke-width="0.28" stroke-miterlimit="10"/>
<path d="M114.44 11.1299C114.44 11.2099 114.4 11.2899 114.33 11.3499C114.26 11.4199 114.17 11.4699 114.07 11.5199C113.97 11.5599 113.85 11.5899 113.73 11.6099C113.61 11.6299 113.5 11.6399 113.4 11.6399H113.35C113.25 11.6399 113.15 11.5799 113.05 11.4699C112.94 11.3599 112.84 11.2299 112.73 11.0699L108.94 5.25991V11.1799C108.94 11.2499 108.91 11.3099 108.84 11.3599C108.77 11.4099 108.69 11.4599 108.6 11.4999C108.5 11.5399 108.39 11.5699 108.29 11.5899C108.19 11.6099 108.1 11.6199 108.03 11.6199C107.81 11.6199 107.7 11.4899 107.7 11.2399V3.28991C107.7 3.14991 107.73 3.05991 107.78 3.00991C107.84 2.95991 107.92 2.92991 108.03 2.90991C108.1 2.90991 108.18 2.90991 108.27 2.92991C108.36 2.94991 108.45 2.96991 108.54 2.99991C108.63 3.03991 108.71 3.07991 108.79 3.13991C108.87 3.18991 108.93 3.24991 108.98 3.30991C109.66 4.36991 110.36 5.45991 111.08 6.59991C111.8 7.73991 112.51 8.83991 113.18 9.88991V3.28991C113.18 3.03991 113.29 2.90991 113.51 2.90991C113.58 2.90991 113.67 2.91991 113.77 2.93991C113.87 2.95991 113.98 2.98991 114.08 3.02991C114.18 3.06991 114.26 3.11991 114.32 3.16991C114.38 3.21991 114.42 3.27991 114.42 3.34991V11.1299H114.44Z" fill="#231815" stroke="#231815" stroke-width="0.28" stroke-miterlimit="10"/>
<path d="M117.36 11.1999C117.36 11.2699 117.33 11.3299 117.26 11.3799C117.19 11.4299 117.11 11.4799 117.02 11.5199C116.92 11.5599 116.81 11.5899 116.71 11.6099C116.61 11.6299 116.52 11.6399 116.45 11.6399C116.23 11.6399 116.12 11.5099 116.12 11.2599V3.28991C116.12 3.03991 116.23 2.90991 116.45 2.90991C116.52 2.90991 116.61 2.91991 116.71 2.93991C116.81 2.95991 116.92 2.98991 117.02 3.02991C117.12 3.06991 117.2 3.11991 117.26 3.16991C117.33 3.21991 117.36 3.27991 117.36 3.34991V7.17991C118.02 6.55991 118.68 5.93991 119.34 5.30991C120 4.67991 120.66 4.05991 121.32 3.43991C121.38 3.38991 121.49 3.35991 121.65 3.35991C121.76 3.35991 121.88 3.36991 121.99 3.40991C122.11 3.43991 122.2 3.48991 122.27 3.54991C122.36 3.63991 122.39 3.72991 122.36 3.80991C122.33 3.88991 122.29 3.96991 122.22 4.04991C121.7 4.52991 121.19 5.00991 120.68 5.49991C120.17 5.98991 119.65 6.46991 119.13 6.96991C119.29 7.17991 119.45 7.38991 119.63 7.59991C119.81 7.80991 119.97 8.00991 120.13 8.20991C120.47 8.63991 120.81 9.05991 121.15 9.47991C121.48 9.89991 121.83 10.3299 122.19 10.7499C122.33 10.9299 122.31 11.1099 122.11 11.2699C122.05 11.3099 121.96 11.3399 121.87 11.3599C121.77 11.3799 121.68 11.3899 121.59 11.3899C121.4 11.3899 121.26 11.3499 121.18 11.2799C121.08 11.1499 120.96 11.0099 120.83 10.8499C120.7 10.6899 120.57 10.5299 120.45 10.3599C120.31 10.1899 120.18 10.0299 120.05 9.86991C119.92 9.70991 119.8 9.55991 119.7 9.42991C119.47 9.14991 119.24 8.85991 119.01 8.57991C118.78 8.29991 118.56 8.00991 118.33 7.72991C118.17 7.87991 118.01 8.03991 117.85 8.18991C117.69 8.33991 117.53 8.49991 117.37 8.64991V11.1999H117.36Z" fill="#231815" stroke="#231815" stroke-width="0.28" stroke-miterlimit="10"/>
<path d="M123.77 3.63994C123.77 3.47994 123.83 3.33994 123.94 3.22994C124.05 3.11994 124.21 3.05994 124.42 3.05994H129.16C129.39 3.05994 129.51 3.21994 129.51 3.52994C129.51 3.87994 129.39 4.05994 129.15 4.05994H125.04V6.64994H128.8C129.03 6.64994 129.15 6.80994 129.15 7.11994C129.15 7.46994 129.03 7.64994 128.79 7.64994H125.04V10.3799H129.27C129.51 10.3799 129.63 10.5599 129.63 10.9099C129.63 11.2199 129.51 11.3799 129.28 11.3799H124.42C124.21 11.3799 124.05 11.3199 123.94 11.2099C123.83 11.0999 123.77 10.9599 123.77 10.7999V3.63994Z" fill="#231815" stroke="#231815" stroke-width="0.28" stroke-miterlimit="10"/>
<path d="M137.3 10.6999C137.33 10.7599 137.36 10.8199 137.37 10.8699C137.39 10.9199 137.39 10.9699 137.39 11.0099C137.39 11.0699 137.33 11.1599 137.22 11.2599C137.16 11.2999 137.07 11.3299 136.96 11.3499C136.85 11.3699 136.74 11.3799 136.63 11.3799C136.54 11.3799 136.46 11.3699 136.39 11.3399C136.32 11.3099 136.26 11.2799 136.21 11.2399C135.89 10.6299 135.63 10.1199 135.42 9.71994C135.21 9.31994 135.05 8.98994 134.92 8.73994C134.78 8.49994 134.68 8.30994 134.62 8.18994C134.56 8.06994 134.51 7.98994 134.48 7.92994H133.91C133.69 7.92994 133.46 7.92994 133.23 7.91994H131.98V11.1299C131.98 11.1299 131.95 11.2199 131.89 11.2599C131.83 11.2999 131.75 11.3399 131.66 11.3699C131.45 11.4399 131.25 11.4699 131.06 11.4699C130.83 11.4699 130.71 11.3699 130.71 11.1699V3.63994C130.71 3.47994 130.77 3.33994 130.88 3.22994C130.99 3.11994 131.15 3.05994 131.36 3.05994H133.55C133.78 3.05994 134.03 3.05994 134.31 3.05994C134.58 3.05994 134.86 3.08994 135.14 3.12994C135.42 3.17994 135.69 3.24994 135.95 3.33994C136.21 3.43994 136.44 3.57994 136.64 3.75994C136.84 3.93994 137 4.17994 137.12 4.45994C137.24 4.73994 137.3 5.08994 137.3 5.50994C137.3 5.83994 137.26 6.12994 137.17 6.36994C137.08 6.60994 136.98 6.82994 136.84 6.99994C136.7 7.17994 136.55 7.31994 136.36 7.43994C136.17 7.55994 135.98 7.64994 135.76 7.71994L137.3 10.6999ZM131.97 4.04994V6.93994H134.07C134.73 6.93994 135.23 6.80994 135.57 6.56994C135.91 6.32994 136.08 5.94994 136.08 5.44994C136.08 4.94994 135.91 4.57994 135.58 4.36994C135.25 4.15994 134.74 4.04994 134.08 4.04994H131.98H131.97Z" fill="#231815" stroke="#231815" stroke-width="0.28" stroke-miterlimit="10"/>
<path d="M141.52 3.66984C141.52 3.50984 141.58 3.36984 141.69 3.25984C141.8 3.14984 141.96 3.08984 142.17 3.08984H144.14C144.24 3.08984 144.4 3.10984 144.65 3.13984C144.89 3.16984 145.17 3.23984 145.47 3.33984C145.77 3.43984 146.09 3.57984 146.42 3.76984C146.75 3.95984 147.05 4.19984 147.33 4.50984C147.6 4.81984 147.83 5.20984 148.02 5.65984C148.21 6.10984 148.3 6.64984 148.31 7.27984C148.29 7.90984 148.19 8.43984 148.01 8.88984C147.83 9.33984 147.6 9.70984 147.32 10.0198C147.04 10.3298 146.74 10.5698 146.41 10.7598C146.08 10.9498 145.77 11.0898 145.47 11.1898C145.16 11.2898 144.88 11.3498 144.65 11.3898C144.41 11.4198 144.24 11.4398 144.15 11.4398H142.18C141.97 11.4398 141.81 11.3798 141.7 11.2698C141.59 11.1598 141.53 11.0198 141.53 10.8598V3.66984H141.52ZM143.65 10.4298C143.71 10.4298 143.84 10.4298 144.03 10.3998C144.22 10.3798 144.43 10.3298 144.68 10.2598C144.92 10.1898 145.17 10.0898 145.44 9.95984C145.71 9.82984 145.97 9.63984 146.2 9.40984C146.43 9.17984 146.63 8.89984 146.79 8.55984C146.95 8.21984 147.05 7.80984 147.09 7.33984C147.09 6.82984 147 6.38984 146.84 6.02984C146.68 5.66984 146.49 5.35984 146.25 5.11984C146.02 4.87984 145.76 4.68984 145.49 4.54984C145.21 4.40984 144.94 4.29984 144.69 4.22984C144.44 4.15984 144.21 4.11984 144.02 4.09984C143.83 4.07984 143.7 4.06984 143.64 4.06984H142.78V10.4398H143.64L143.65 10.4298Z" fill="#231815" stroke="#231815" stroke-width="0.28" stroke-miterlimit="10"/>
<path d="M149.68 3.63994C149.68 3.47994 149.74 3.33994 149.85 3.22994C149.96 3.11994 150.12 3.05994 150.33 3.05994H155.07C155.3 3.05994 155.42 3.21994 155.42 3.52994C155.42 3.87994 155.3 4.05994 155.06 4.05994H150.95V6.64994H154.71C154.94 6.64994 155.06 6.80994 155.06 7.11994C155.06 7.46994 154.94 7.64994 154.7 7.64994H150.95V10.3799H155.18C155.42 10.3799 155.54 10.5599 155.54 10.9099C155.54 11.2199 155.42 11.3799 155.19 11.3799H150.33C150.12 11.3799 149.96 11.3199 149.85 11.2099C149.74 11.0999 149.68 10.9599 149.68 10.7999V3.63994Z" fill="#231815" stroke="#231815" stroke-width="0.28" stroke-miterlimit="10"/>
<path d="M159.53 2.95984C159.95 2.95984 160.35 3.00984 160.73 3.10984C161.11 3.20984 161.44 3.36984 161.73 3.57984C162.01 3.78984 162.23 4.04984 162.4 4.35984C162.57 4.66984 162.65 5.02984 162.65 5.43984C162.65 5.49984 162.61 5.54984 162.52 5.59984C162.43 5.64984 162.34 5.66984 162.23 5.69984C162.12 5.72984 162 5.74984 161.88 5.75984C161.76 5.76984 161.67 5.76984 161.59 5.75984C161.51 5.74984 161.46 5.70984 161.44 5.64984C161.42 5.58984 161.41 5.49984 161.41 5.39984V5.28984C161.39 5.05984 161.32 4.85984 161.21 4.68984C161.1 4.51984 160.96 4.37984 160.8 4.27984C160.63 4.17984 160.45 4.10984 160.24 4.05984C160.03 4.00984 159.84 3.98984 159.64 3.98984C159.44 3.98984 159.25 4.00984 159.05 4.04984C158.85 4.08984 158.66 4.14984 158.48 4.23984C158.3 4.32984 158.16 4.44984 158.05 4.58984C157.94 4.72984 157.88 4.90984 157.88 5.10984C157.88 5.26984 157.91 5.40984 157.98 5.53984C158.05 5.66984 158.14 5.77984 158.26 5.87984C158.37 5.98984 158.5 6.07984 158.64 6.15984C158.78 6.23984 158.93 6.30984 159.07 6.37984C159.42 6.52984 159.76 6.67984 160.1 6.81984C160.44 6.95984 160.82 7.10984 161.24 7.27984C161.28 7.29984 161.33 7.30984 161.38 7.33984C161.43 7.35984 161.48 7.37984 161.52 7.39984C161.93 7.55984 162.26 7.77984 162.51 8.06984C162.76 8.35984 162.88 8.72984 162.88 9.18984C162.88 9.64984 162.79 9.99984 162.61 10.2998C162.43 10.5998 162.19 10.8498 161.89 11.0398C161.59 11.2298 161.24 11.3698 160.86 11.4498C160.47 11.5298 160.08 11.5798 159.68 11.5798C158.86 11.5798 158.18 11.4198 157.64 11.0898C157.1 10.7598 156.73 10.3098 156.54 9.71984C156.44 9.41984 156.4 9.11984 156.4 8.80984C156.4 8.75984 156.44 8.70984 156.52 8.65984C156.6 8.60984 156.7 8.57984 156.81 8.54984C156.92 8.51984 157.04 8.49984 157.16 8.48984C157.28 8.47984 157.37 8.47984 157.45 8.48984C157.53 8.50984 157.58 8.55984 157.61 8.65984C157.63 8.75984 157.65 8.85984 157.65 8.95984C157.68 9.28984 157.76 9.55984 157.88 9.76984C158 9.97984 158.15 10.1498 158.35 10.2698C158.53 10.3898 158.75 10.4798 158.99 10.5298C159.23 10.5798 159.49 10.5998 159.76 10.5998C159.91 10.5998 160.1 10.5798 160.33 10.5398C160.56 10.4998 160.78 10.4298 161 10.3398C161.22 10.2498 161.4 10.1298 161.55 9.96984C161.7 9.81984 161.78 9.62984 161.78 9.39984C161.78 9.24984 161.75 9.12984 161.69 9.01984C161.63 8.90984 161.55 8.81984 161.46 8.72984C161.36 8.64984 161.26 8.57984 161.14 8.51984C161.02 8.44984 160.9 8.38984 160.78 8.32984C160.3 8.08984 159.86 7.88984 159.47 7.71984C159.07 7.54984 158.68 7.38984 158.3 7.23984C158.24 7.20984 158.16 7.17984 158.08 7.14984C158 7.11984 157.92 7.08984 157.86 7.05984C157.49 6.89984 157.19 6.66984 156.98 6.36984C156.77 6.06984 156.66 5.70984 156.66 5.29984C156.66 4.90984 156.74 4.56984 156.9 4.27984C157.06 3.98984 157.27 3.74984 157.54 3.55984C157.8 3.37984 158.11 3.23984 158.46 3.14984C158.81 3.05984 159.17 3.00984 159.55 3.00984L159.53 2.95984Z" fill="#231815" stroke="#231815" stroke-width="0.28" stroke-miterlimit="10"/>
<path d="M164.16 11.4199C164.04 11.4199 163.94 11.3799 163.87 11.3099C163.8 11.2399 163.76 11.1099 163.76 10.9399C163.76 10.7499 163.79 10.6099 163.84 10.5399C163.9 10.4599 163.99 10.4299 164.13 10.4299H164.5V4.01991H164.15C164.03 4.01991 163.93 3.97991 163.86 3.90991C163.79 3.83991 163.75 3.70991 163.75 3.53991C163.75 3.34991 163.78 3.20991 163.83 3.13991C163.89 3.05991 163.98 3.02991 164.12 3.02991H166.01C166.25 3.02991 166.37 3.18991 166.37 3.49991C166.37 3.84991 166.25 4.02991 166 4.02991H165.63V10.4399H166.01C166.25 10.4399 166.37 10.5999 166.37 10.9099C166.37 11.2599 166.25 11.4399 166 11.4399H164.15L164.16 11.4199Z" fill="#231815" stroke="#231815" stroke-width="0.28" stroke-miterlimit="10"/>
<path d="M171.96 8.09988C171.84 8.09988 171.75 8.05988 171.67 7.98988C171.6 7.91988 171.56 7.78988 171.56 7.61988C171.56 7.42988 171.59 7.28988 171.64 7.21988C171.7 7.13988 171.79 7.10988 171.93 7.10988H174.09C174.29 7.10988 174.43 7.15988 174.51 7.24988C174.59 7.34988 174.64 7.47988 174.64 7.64988V11.2399C174.64 11.3099 174.62 11.3699 174.57 11.4199C174.53 11.4699 174.47 11.5099 174.41 11.5399C174.34 11.5599 174.26 11.5799 174.18 11.5999C174.1 11.6099 174.02 11.6199 173.95 11.6199C173.81 11.6199 173.69 11.5899 173.59 11.5299C173.49 11.4699 173.43 11.3699 173.43 11.2399V10.3299C173.31 10.4899 173.16 10.6399 172.98 10.7799C172.8 10.9199 172.61 11.0399 172.41 11.1399C172.2 11.2399 171.99 11.3199 171.77 11.3799C171.55 11.4399 171.34 11.4699 171.13 11.4699C170.48 11.4699 169.93 11.3499 169.45 11.1099C168.98 10.8699 168.58 10.5499 168.27 10.1499C167.95 9.75988 167.72 9.30988 167.57 8.79988C167.42 8.28988 167.34 7.74988 167.34 7.19988C167.34 6.58988 167.42 6.01988 167.59 5.48988C167.76 4.95988 168 4.49988 168.32 4.10988C168.64 3.72988 169.03 3.42988 169.5 3.20988C169.97 2.98988 170.5 2.87988 171.11 2.87988C171.58 2.89988 172.02 2.96988 172.42 3.11988C172.82 3.25988 173.17 3.45988 173.47 3.71988C173.76 3.97988 174 4.28988 174.18 4.64988C174.36 5.00988 174.46 5.40988 174.48 5.83988C174.48 5.89988 174.44 5.94988 174.37 5.98988C174.3 6.02988 174.21 6.04988 174.09 6.04988C173.99 6.04988 173.89 6.04988 173.79 6.01988C173.68 5.99988 173.58 5.96988 173.5 5.92988C173.41 5.89988 173.34 5.85988 173.28 5.81988C173.22 5.77988 173.19 5.72988 173.18 5.68988C173.11 5.11988 172.89 4.67988 172.52 4.34988C172.15 4.01988 171.68 3.85988 171.1 3.85988C170.62 3.85988 170.22 3.96988 169.91 4.18988C169.59 4.40988 169.34 4.68988 169.15 5.01988C168.96 5.35988 168.82 5.71988 168.74 6.10988C168.66 6.49988 168.62 6.85988 168.62 7.18988C168.62 7.59988 168.67 7.99988 168.76 8.38988C168.86 8.77988 169.01 9.12988 169.21 9.43988C169.42 9.74988 169.69 9.99988 170.02 10.1899C170.35 10.3799 170.75 10.4699 171.23 10.4699C171.44 10.4699 171.66 10.4299 171.89 10.3599C172.12 10.2899 172.34 10.1799 172.56 10.0399C172.77 9.90988 172.95 9.75988 173.1 9.57988C173.26 9.39988 173.36 9.20988 173.42 8.99988V8.10988H171.93L171.96 8.09988Z" fill="#231815" stroke="#231815" stroke-width="0.28" stroke-miterlimit="10"/>
<path d="M182.99 11.1299C182.99 11.2099 182.95 11.2899 182.88 11.3499C182.81 11.4199 182.72 11.4699 182.62 11.5199C182.52 11.5599 182.4 11.5899 182.28 11.6099C182.16 11.6299 182.05 11.6399 181.95 11.6399H181.9C181.8 11.6399 181.7 11.5799 181.6 11.4699C181.49 11.3599 181.39 11.2299 181.28 11.0699L177.49 5.25991V11.1799C177.49 11.2499 177.46 11.3099 177.39 11.3599C177.32 11.4099 177.24 11.4599 177.15 11.4999C177.05 11.5399 176.94 11.5699 176.84 11.5899C176.74 11.6099 176.65 11.6199 176.58 11.6199C176.36 11.6199 176.25 11.4899 176.25 11.2399V3.28991C176.25 3.14991 176.28 3.05991 176.33 3.00991C176.39 2.95991 176.47 2.92991 176.58 2.90991C176.65 2.90991 176.73 2.90991 176.82 2.92991C176.91 2.94991 177 2.96991 177.09 2.99991C177.18 3.03991 177.26 3.07991 177.34 3.13991C177.42 3.18991 177.48 3.24991 177.53 3.30991C178.21 4.36991 178.91 5.45991 179.63 6.59991C180.36 7.73991 181.06 8.83991 181.73 9.88991V3.28991C181.73 3.03991 181.84 2.90991 182.06 2.90991C182.13 2.90991 182.22 2.91991 182.32 2.93991C182.42 2.95991 182.53 2.98991 182.63 3.02991C182.73 3.06991 182.81 3.11991 182.87 3.16991C182.93 3.21991 182.97 3.27991 182.97 3.34991V11.1299H182.99Z" fill="#231815" stroke="#231815" stroke-width="0.28" stroke-miterlimit="10"/>
<path d="M193.49 8.42983C193.51 8.29983 193.54 8.18983 193.58 8.09983C193.62 8.00983 193.71 7.95983 193.85 7.95983C193.91 7.95983 193.99 7.96983 194.08 7.98983C194.17 8.00983 194.26 8.03983 194.34 8.07983C194.42 8.12983 194.49 8.17983 194.55 8.23983C194.61 8.29983 194.64 8.35983 194.64 8.42983C194.61 8.86983 194.5 9.26983 194.33 9.64983C194.16 10.0298 193.92 10.3598 193.63 10.6298C193.33 10.9098 192.97 11.1398 192.57 11.2998C192.16 11.4598 191.71 11.5498 191.22 11.5498C190.57 11.5498 190 11.4298 189.53 11.1798C189.06 10.9298 188.66 10.6098 188.35 10.1998C188.04 9.79983 187.81 9.34983 187.66 8.82983C187.51 8.30983 187.44 7.79983 187.44 7.26983C187.44 6.69983 187.52 6.14983 187.67 5.62983C187.83 5.10983 188.06 4.64983 188.38 4.24983C188.69 3.85983 189.08 3.54983 189.55 3.30983C190.02 3.06983 190.57 2.94983 191.21 2.94983C191.66 2.94983 192.08 3.01983 192.46 3.15983C192.84 3.29983 193.17 3.48983 193.46 3.72983C193.75 3.96983 193.98 4.26983 194.15 4.60983C194.32 4.94983 194.43 5.32983 194.47 5.73983C194.47 5.80983 194.43 5.86983 194.37 5.91983C194.31 5.96983 194.24 6.01983 194.16 6.05983C194.07 6.10983 193.98 6.13983 193.89 6.15983C193.8 6.17983 193.72 6.18983 193.66 6.18983C193.53 6.18983 193.45 6.13983 193.4 6.02983C193.35 5.91983 193.32 5.79983 193.3 5.64983C193.25 5.38983 193.16 5.14983 193.02 4.93983C192.88 4.72983 192.72 4.54983 192.53 4.38983C192.34 4.24983 192.13 4.12983 191.9 4.04983C191.67 3.96983 191.44 3.92983 191.22 3.92983C190.8 3.92983 190.43 4.02983 190.12 4.21983C189.81 4.40983 189.55 4.65983 189.34 4.96983C189.13 5.27983 188.98 5.63983 188.87 6.03983C188.77 6.43983 188.72 6.83983 188.72 7.25983C188.72 7.70983 188.77 8.13983 188.88 8.52983C188.99 8.92983 189.15 9.26983 189.36 9.55983C189.57 9.85983 189.83 10.0898 190.14 10.2698C190.45 10.4398 190.81 10.5298 191.21 10.5298C191.52 10.5298 191.81 10.4798 192.08 10.3698C192.35 10.2698 192.58 10.1198 192.78 9.92983C192.98 9.74983 193.14 9.51983 193.26 9.25983C193.38 8.99983 193.46 8.70983 193.49 8.39983V8.42983Z" fill="#231815" stroke="#231815" stroke-width="0.28" stroke-miterlimit="10"/>
<path d="M198.46 5.87988C198.89 5.87988 199.28 5.95988 199.62 6.11988C199.96 6.27988 200.25 6.48988 200.48 6.74988C200.71 7.01988 200.89 7.31988 201.01 7.65988C201.13 7.99988 201.19 8.34988 201.19 8.70988C201.19 9.08988 201.12 9.45988 200.99 9.79988C200.86 10.1399 200.67 10.4399 200.44 10.6999C200.2 10.9599 199.91 11.1699 199.58 11.3199C199.25 11.4699 198.87 11.5499 198.46 11.5499C198.05 11.5499 197.64 11.4699 197.3 11.3099C196.96 11.1499 196.67 10.9399 196.44 10.6699C196.2 10.3999 196.02 10.0999 195.9 9.75988C195.78 9.41988 195.72 9.07988 195.72 8.71988C195.72 8.35988 195.79 7.97988 195.92 7.63988C196.05 7.29988 196.24 6.98988 196.47 6.72988C196.71 6.46988 197 6.25988 197.34 6.10988C197.68 5.95988 198.05 5.87988 198.47 5.87988H198.46ZM196.87 8.70988C196.87 8.96988 196.91 9.21988 196.99 9.43988C197.07 9.66988 197.18 9.86988 197.32 10.0399C197.46 10.2199 197.62 10.3599 197.82 10.4599C198.01 10.5599 198.23 10.6199 198.46 10.6199C198.69 10.6199 198.92 10.5599 199.11 10.4399C199.3 10.3199 199.47 10.1599 199.62 9.96988C199.76 9.77988 199.86 9.55988 199.93 9.31988C200 9.07988 200.04 8.83988 200.04 8.59988C200.04 8.33988 200 8.09988 199.92 7.87988C199.84 7.65988 199.73 7.46988 199.6 7.30988C199.46 7.14988 199.29 7.02988 199.09 6.93988C198.89 6.84988 198.69 6.80988 198.46 6.80988C198.21 6.80988 197.99 6.85988 197.8 6.96988C197.61 7.07988 197.44 7.21988 197.3 7.39988C197.16 7.57988 197.05 7.78988 196.98 8.01988C196.91 8.24988 196.87 8.47988 196.87 8.71988V8.70988Z" fill="#231815" stroke="#231815" stroke-width="0.28" stroke-miterlimit="10"/>
<path d="M203.58 11.2699C203.58 11.4499 203.51 11.6099 203.38 11.7399C203.25 11.8699 203.09 11.9399 202.9 11.9399C202.71 11.9399 202.55 11.8699 202.41 11.7399C202.27 11.6099 202.21 11.4499 202.21 11.2699C202.21 11.0899 202.28 10.9399 202.41 10.8099C202.55 10.6799 202.71 10.6099 202.9 10.6099C203.09 10.6099 203.24 10.6699 203.38 10.8099C203.52 10.9399 203.58 11.0899 203.58 11.2699Z" fill="#231815" stroke="#231815" stroke-width="0.28" stroke-miterlimit="10"/>
<path d="M207.05 11.0399V11.4299C207.05 11.5699 207.02 11.6699 206.95 11.7499C206.9 11.8099 206.83 11.8999 206.75 12.0099C206.66 12.1199 206.57 12.2299 206.48 12.3499C206.38 12.4599 206.29 12.5499 206.2 12.6399C206.11 12.7299 206.04 12.7699 206 12.7699C205.89 12.7699 205.83 12.7499 205.81 12.7099C205.79 12.6699 205.81 12.6099 205.87 12.5299L206.34 11.7199H206.32C206.13 11.7199 205.98 11.6499 205.86 11.5199C205.75 11.3899 205.69 11.2299 205.69 11.0499C205.69 10.8699 205.76 10.7199 205.89 10.5899C206.02 10.4599 206.19 10.3899 206.38 10.3899C206.57 10.3899 206.72 10.4599 206.86 10.5899C207 10.7199 207.06 10.8699 207.06 11.0499L207.05 11.0399Z" fill="#231815" stroke="#231815" stroke-width="0.28" stroke-miterlimit="10"/>
<path d="M213.86 10.4099H218C218.23 10.4099 218.35 10.5799 218.35 10.8899C218.35 11.2499 218.23 11.4199 217.99 11.4099H213.24C213.03 11.4099 212.87 11.3499 212.76 11.2399C212.65 11.1299 212.59 10.9899 212.59 10.8299V3.28991C212.6 3.03991 212.71 2.90991 212.94 2.90991C213.01 2.90991 213.1 2.91991 213.2 2.93991C213.3 2.95991 213.41 2.98991 213.51 3.02991C213.61 3.06991 213.69 3.11991 213.75 3.16991C213.82 3.21991 213.85 3.27991 213.85 3.34991V10.4099H213.86Z" fill="#231815" stroke="#231815" stroke-width="0.28" stroke-miterlimit="10"/>
<path d="M220.24 4.32983C220.24 4.07983 220.35 3.94983 220.57 3.94983C220.64 3.94983 220.73 3.95983 220.83 3.97983C220.93 3.99983 221.04 4.02983 221.14 4.06983C221.24 4.10983 221.32 4.14983 221.38 4.20983C221.45 4.25983 221.48 4.31983 221.48 4.38983V5.95983H222.91C223.14 5.95983 223.26 6.11983 223.26 6.42983C223.26 6.77983 223.14 6.95983 222.9 6.95983H221.48V9.28983C221.48 9.50983 221.53 9.69983 221.64 9.84983C221.75 9.99983 221.88 10.1198 222.04 10.2198C222.2 10.3198 222.37 10.3898 222.56 10.4398C222.75 10.4898 222.92 10.5198 223.09 10.5398C223.19 10.5398 223.27 10.5798 223.32 10.6398C223.37 10.6998 223.39 10.7698 223.39 10.8598C223.39 10.9998 223.33 11.1298 223.22 11.2598C223.11 11.3898 222.97 11.4498 222.8 11.4298C222.47 11.3898 222.16 11.3298 221.84 11.2298C221.53 11.1298 221.25 10.9998 221.02 10.8198C220.78 10.6498 220.59 10.4398 220.44 10.1798C220.29 9.91983 220.22 9.60983 220.22 9.23983V6.95983H219.42C219.3 6.95983 219.2 6.91983 219.13 6.84983C219.06 6.77983 219.02 6.64983 219.02 6.47983C219.02 6.28983 219.05 6.14983 219.1 6.07983C219.15 6.00983 219.25 5.96983 219.39 5.96983H220.21V4.33983L220.24 4.32983Z" fill="#231815" stroke="#231815" stroke-width="0.28" stroke-miterlimit="10"/>
<path d="M229.62 11.1999C229.62 11.2699 229.59 11.3299 229.52 11.3799C229.45 11.4299 229.37 11.4799 229.28 11.5199C229.18 11.5599 229.07 11.5899 228.97 11.6099C228.87 11.6299 228.78 11.6399 228.71 11.6399C228.49 11.6399 228.38 11.5099 228.38 11.2599V10.7499C228.31 10.8299 228.21 10.9099 228.09 10.9899C227.97 11.0699 227.84 11.1299 227.71 11.1799C227.57 11.2299 227.42 11.2799 227.27 11.3099C227.12 11.3399 226.99 11.3599 226.86 11.3599C226.44 11.3599 226.06 11.2899 225.74 11.1399C225.42 10.9899 225.14 10.7999 224.92 10.5399C224.69 10.2999 224.51 9.99992 224.39 9.66992C224.27 9.32992 224.21 8.96992 224.21 8.58992C224.21 8.22992 224.27 7.88992 224.38 7.55992C224.49 7.22992 224.66 6.93992 224.88 6.68992C225.09 6.44992 225.36 6.24992 225.69 6.09992C226.01 5.94992 226.38 5.87992 226.81 5.87992C226.96 5.87992 227.12 5.89992 227.28 5.93992C227.44 5.97992 227.6 6.03992 227.74 6.11992C227.88 6.19992 228.01 6.28992 228.12 6.39992C228.23 6.50992 228.32 6.61992 228.38 6.73992V3.29992C228.38 3.04992 228.49 2.91992 228.71 2.91992C228.78 2.91992 228.87 2.92992 228.97 2.94992C229.07 2.96992 229.18 2.99992 229.28 3.03992C229.38 3.07992 229.46 3.12992 229.52 3.17992C229.59 3.22992 229.62 3.28992 229.62 3.35992V11.2099V11.1999ZM226.85 6.81992C226.35 6.81992 225.97 6.97992 225.71 7.30992C225.45 7.63992 225.32 8.06992 225.32 8.59992C225.32 8.83992 225.35 9.07992 225.42 9.29992C225.48 9.51992 225.58 9.70992 225.71 9.86992C225.83 10.0399 225.99 10.1699 226.18 10.2699C226.37 10.3699 226.6 10.4199 226.86 10.4199C227.03 10.4199 227.21 10.3899 227.37 10.3299C227.54 10.2699 227.69 10.1799 227.82 10.0699C227.96 9.95992 228.07 9.82992 228.17 9.67992C228.27 9.52992 228.33 9.35992 228.37 9.16992V8.14992C228.33 7.96992 228.26 7.80992 228.17 7.63992C228.08 7.46992 227.96 7.33992 227.83 7.20992C227.69 7.08992 227.54 6.98992 227.38 6.91992C227.22 6.84992 227.04 6.80992 226.85 6.80992V6.81992Z" fill="#231815" stroke="#231815" stroke-width="0.28" stroke-miterlimit="10"/>
</svg>
